<svg xmlns="http://www.w3.org/2000/svg" xmlns:xlink="http://www.w3.org/1999/xlink" width="80" height="55" viewBox="0 0 70 87.5" version="1.1" x="0px" y="0px">
    <g stroke="none" stroke-width="1" fill="none" fill-rule="evenodd">
        <g fill-rule="nonzero" fill="#2CBCA5">
            <path d="M57.8896458,18.25 L41.1714346,34.3404148 L15.8637601,32.2334485 L15.4476093,32.7317077 C15.4144126,32.7714542 15.4144126,32.7714542 15.256148,32.9608386 C15.0394718,33.220053 15.0394718,33.220053 14.7142177,33.6089485 C14.1302937,34.3070181 13.4790036,35.0848931 12.7768398,35.9226142 C10.7707249,38.3160226 8.75894651,40.7093949 6.87352062,42.942966 C6.80373206,43.0256379 6.80373206,43.0256379 6.73393885,43.1083026 C2.09974632,48.5969358 -1.52136129,52.8005512 -1.69215547,52.914125 L-0.30784453,54.995875 C0.196451651,54.6605309 2.99601017,51.4106227 8.6441257,44.721122 C8.71401126,44.6383479 8.71401126,44.6383479 8.78389084,44.5555681 C10.6714057,42.3195224 12.684975,39.9240195 14.6928151,37.5285527 C15.3955356,36.6901675 16.0473569,35.911658 16.6317963,35.2129724 C16.7995448,35.012401 16.8808668,34.9151669 16.9499654,34.8325286 L42.0905654,36.9255852 L60.297,19.4028324 L60.297,28.547 L62.797,28.547 L62.797,15.75 L50,15.75 L50,18.25 L57.8896458,18.25 Z" transform="scale(1.5)"/>
        </g>
    </g>
</svg>